<?xml version="1.0" standalone="yes"?>
<svg xmlns="http://www.w3.org/2000/svg" width="70" height="81">
<path style="fill:#052f4f; stroke:none;" d="M0 0L0 81L70 81L70 0L0 0z"/>
<path style="fill:#506b39; stroke:none;" d="M5.66667 7.33334L6.33333 7.66666L5.66667 7.33334M62.6667 7.33334L63.3333 7.66666L62.6667 7.33334z"/>
<path style="fill:#879627; stroke:none;" d="M64 7L65 8L64 7z"/>
<path style="fill:#fdf602; stroke:none;" d="M5 8C7.27718 13.2847 10.2027 21.1871 16 23L16 32L12 32L12 39L17 39L17 74L25 74C25 64.9474 21.9775 49.4529 25.6034 41.1481C27.6146 36.5417 41.2858 36.292 43.9722 40.3179C48.5131 47.1227 45 65.8775 45 74L53 74L53 38L58 38L58 32L54 32L54 23C59.6591 21.0812 62.4476 13.3888 64 8L35 12.9213L5 8z"/>
<path style="fill:#bfc415; stroke:none;" d="M9 8L10 9L9 8z"/>
<path style="fill:#879627; stroke:none;" d="M10 8L11 9L10 8z"/>
<path style="fill:#506b39; stroke:none;" d="M11.6667 8.33334L12.3333 8.66666L11.6667 8.33334M57 8L58 9L57 8z"/>
<path style="fill:#879627; stroke:none;" d="M58.6667 8.33334L59.3333 8.66666L58.6667 8.33334z"/>
<path style="fill:#bfc415; stroke:none;" d="M60 8L61 9L60 8M64 8L65 9L64 8z"/>
<path style="fill:#879627; stroke:none;" d="M5 9L6 10L5 9z"/>
<path style="fill:#bfc415; stroke:none;" d="M14 9L15 10L14 9z"/>
<path style="fill:#879627; stroke:none;" d="M15.6667 9.33334L16.3333 9.66666L15.6667 9.33334z"/>
<path style="fill:#506b39; stroke:none;" d="M17 9L18 10L17 9M52 9L53 10L52 9z"/>
<path style="fill:#879627; stroke:none;" d="M53.6667 9.33334L54.3333 9.66666L53.6667 9.33334z"/>
<path style="fill:#bfc415; stroke:none;" d="M55 9L56 10L55 9z"/>
<path style="fill:#506b39; stroke:none;" d="M64 9L65 10L64 9z"/>
<path style="fill:#bfc415; stroke:none;" d="M19 10L20 11L19 10z"/>
<path style="fill:#879627; stroke:none;" d="M20.6667 10.3333L21.3333 10.6667L20.6667 10.3333z"/>
<path style="fill:#506b39; stroke:none;" d="M22 10L23 11L22 10M47 10L48 11L47 10z"/>
<path style="fill:#879627; stroke:none;" d="M48 10L49 11L48 10z"/>
<path style="fill:#bfc415; stroke:none;" d="M49 10L50 11L49 10M63 10L64 11L63 10z"/>
<path style="fill:#506b39; stroke:none;" d="M6 11L7 12L6 11z"/>
<path style="fill:#bfc415; stroke:none;" d="M24.6667 11.3333L25.3333 11.6667L24.6667 11.3333z"/>
<path style="fill:#879627; stroke:none;" d="M26 11L27 12L26 11z"/>
<path style="fill:#506b39; stroke:none;" d="M27 11L28 12L27 11M42 11L43 12L42 11z"/>
<path style="fill:#879627; stroke:none;" d="M43 11L44 12L43 11z"/>
<path style="fill:#bfc415; stroke:none;" d="M44 11L45 12L44 11M30 12L31 13L30 12z"/>
<path style="fill:#879627; stroke:none;" d="M31 12L32 13L31 12z"/>
<path style="fill:#506b39; stroke:none;" d="M32 12L33 13L32 12M37 12L38 13L37 12z"/>
<path style="fill:#879627; stroke:none;" d="M38 12L39 13L38 12z"/>
<path style="fill:#bfc415; stroke:none;" d="M39 12L40 13L39 12z"/>
<path style="fill:#879627; stroke:none;" d="M62 12L63 13L62 12z"/>
<path style="fill:#506b39; stroke:none;" d="M7 13L8 14L7 13z"/>
<path style="fill:#bfc415; stroke:none;" d="M8 14L9 15L8 14z"/>
<path style="fill:#879627; stroke:none;" d="M61 14L62 15L61 14z"/>
<path style="fill:#506b39; stroke:none;" d="M8 15L9 16L8 15z"/>
<path style="fill:#bfc415; stroke:none;" d="M9 16L10 17L9 16z"/>
<path style="fill:#506b39; stroke:none;" d="M60 16L61 17L60 16z"/>
<path style="fill:#bfc415; stroke:none;" d="M10 18L11 19L10 18z"/>
<path style="fill:#506b39; stroke:none;" d="M59 18L60 19L59 18z"/>
<path style="fill:#bfc415; stroke:none;" d="M58 19L59 20L58 19z"/>
<path style="fill:#879627; stroke:none;" d="M11 20L12 21L11 20z"/>
<path style="fill:#506b39; stroke:none;" d="M58 20L59 21L58 20z"/>
<path style="fill:#bfc415; stroke:none;" d="M57 21L58 22L57 21z"/>
<path style="fill:#506b39; stroke:none;" d="M12 22L13 23L12 22z"/>
<path style="fill:#879627; stroke:none;" d="M13 23L13 24L16 24L13 23M27 23L27 24L43 24L27 23M54.6667 23.3333L55.3333 23.6667L54.6667 23.3333z"/>
<path style="fill:#506b39; stroke:none;" d="M56 23L57 24L56 23z"/>
<path style="fill:#bfc415; stroke:none;" d="M26 24L26 31L27 31L26 24z"/>
<path style="fill:#052f4f; stroke:none;" d="M27 24L27 31L43 31L43 24L27 24z"/>
<path style="fill:#bfc415; stroke:none;" d="M43 24L43 31L44 31L43 24z"/>
<path style="fill:#506b39; stroke:none;" d="M11 31L11 32L16 32L11 31M27 31L27 32L43 32L27 31z"/>
<path style="fill:#879627; stroke:none;" d="M54 31L54 32L58 32L54 31z"/>
<path style="fill:#506b39; stroke:none;" d="M58 31L59 32L58 31z"/>
<path style="fill:#bfc415; stroke:none;" d="M11 32L11 39L12 39L11 32M58 32L58 38L53 38L53 39C57.5002 38.6494 59.8477 36.5636 58 32M26 38L26 39L44 39L26 38z"/>
<path style="fill:#879627; stroke:none;" d="M58 38L59 39L58 38z"/>
<path style="fill:#bfc415; stroke:none;" d="M25 39L25 74L26 74L25 39M44 39L44 74L45 74L44 39z"/>
<path style="fill:#879627; stroke:none;" d="M17 74L17 75L25 75L17 74z"/>
<path style="fill:#506b39; stroke:none;" d="M25 74L26 75L25 74M44 74L44 75L53 75L44 74z"/>
</svg>
